<svg width="40" height="40" viewBox="0 0 40 40" fill="none" xmlns="http://www.w3.org/2000/svg">
<path d="M39.463 13.0255L32.0654 5.63323L32.0543 5.64437L26.396 0H21.9195L19.7176 2.14864L17.4933 0H13.0391L5.64155 7.38666L5.68615 7.43119L0 13.109V17.5788L2.15182 19.7776L0 21.993V26.4406L7.39757 33.8272L18.4744 22.7667C18.4744 27.4091 18.4744 35.3803 18.4744 36.8442H16.3449V39.3547C18.2793 39.3547 19.0598 39.3547 20.9942 39.3547C20.9942 37.4677 20.9942 25.0601 20.9942 22.6944L32.0654 33.7493L39.463 26.3626V21.9151L37.3112 19.6941L39.463 17.4953V13.0255ZM14.0593 2.4548H16.5567L19.7176 5.61097L22.8784 2.4548H25.3758L30.3094 7.3811L19.712 17.9685L9.12014 7.39223L14.0593 2.4548ZM7.39757 30.3593L2.45842 25.4275V22.9337L5.61925 19.7776L2.45842 16.6214V14.1276L7.39757 9.19576L17.995 19.7776L7.39757 30.3593ZM32.0654 30.2759L21.4736 19.6996L32.071 9.11782L37.0046 14.0441V16.5379L33.8437 19.6941L37.0046 22.8502V25.344L32.0654 30.2759Z" fill="#1D1D1B"/>
<path d="M25.3758 2.4604H22.8784L19.7175 5.61657L16.5567 2.45483H14.0593L9.12012 7.3867L19.712 17.9629L30.3094 7.38113L25.3758 2.4604ZM19.7343 14.9626L16.5902 11.8231L19.7343 8.68368L22.8784 11.8231L19.7343 14.9626Z" fill="#FCFCFC"/>
</svg>
