<svg xmlns="http://www.w3.org/2000/svg" width="24" height="24" fill="none" viewBox="0 0 24 24">
    <path fill="#191820" fill-rule="evenodd" d="M8.25 2a4.75 4.75 0 1 0 0 9.5 4.75 4.75 0 0 0 0-9.5zM5 6.75a3.25 3.25 0 1 1 6.5 0 3.25 3.25 0 0 1-6.5 0zM4.75 14A4.75 4.75 0 0 0 0 18.75v2a.75.75 0 0 0 1.5 0v-2a3.25 3.25 0 0 1 3.25-3.25h7A3.25 3.25 0 0 1 15 18.75v2a.75.75 0 0 0 1.5 0v-2A4.75 4.75 0 0 0 11.75 14h-7zm12.47-6.78a.75.75 0 0 1 1.06 0l1.97 1.97 1.97-1.97a.75.75 0 1 1 1.06 1.06l-1.97 1.97 1.97 1.97a.75.75 0 1 1-1.06 1.06l-1.97-1.97-1.97 1.97a.75.75 0 1 1-1.06-1.06l1.97-1.97-1.97-1.97a.75.75 0 0 1 0-1.06z" clip-rule="evenodd"/>
</svg>
