<svg width="24" height="20" viewBox="0 0 24 20" fill="none" xmlns="http://www.w3.org/2000/svg">
<path fill-rule="evenodd" clip-rule="evenodd" d="M8.25 0C5.62665 0 3.5 2.12665 3.5 4.75C3.5 7.37335 5.62665 9.5 8.25 9.5C10.8734 9.5 13 7.37335 13 4.75C13 2.12665 10.8734 0 8.25 0ZM5 4.75C5 2.95507 6.45507 1.5 8.25 1.5C10.0449 1.5 11.5 2.95507 11.5 4.75C11.5 6.54493 10.0449 8 8.25 8C6.45507 8 5 6.54493 5 4.75ZM4.75 12C2.12665 12 0 14.1266 0 16.75V18.75C0 19.1642 0.335786 19.5 0.75 19.5C1.16421 19.5 1.5 19.1642 1.5 18.75V16.75C1.5 14.9551 2.95507 13.5 4.75 13.5H11.75C13.5449 13.5 15 14.9551 15 16.75V18.75C15 19.1642 15.3358 19.5 15.75 19.5C16.1642 19.5 16.5 19.1642 16.5 18.75V16.75C16.5 14.1266 14.3734 12 11.75 12H4.75ZM17.2197 5.21967C17.5126 4.92678 17.9874 4.92678 18.2803 5.21967L20.25 7.18934L22.2197 5.21967C22.5126 4.92678 22.9874 4.92678 23.2803 5.21967C23.5732 5.51256 23.5732 5.98744 23.2803 6.28033L21.3107 8.25L23.2803 10.2197C23.5732 10.5126 23.5732 10.9874 23.2803 11.2803C22.9874 11.5732 22.5126 11.5732 22.2197 11.2803L20.25 9.31066L18.2803 11.2803C17.9874 11.5732 17.5126 11.5732 17.2197 11.2803C16.9268 10.9874 16.9268 10.5126 17.2197 10.2197L19.1893 8.25L17.2197 6.28033C16.9268 5.98744 16.9268 5.51256 17.2197 5.21967Z" fill="#191820"/>
</svg>
