<svg width="32" height="40" viewBox="0 0 32 40" fill="none" xmlns="http://www.w3.org/2000/svg">
<path fill-rule="evenodd" clip-rule="evenodd" d="M20.3855 6.2448C20.9789 6.2448 21.4502 6.73353 21.4502 7.36189C21.4502 7.9728 20.9789 8.47899 20.3855 8.47899C19.792 8.47899 19.3207 7.9728 19.3207 7.36189C19.3207 6.75099 19.8095 6.2448 20.3855 6.2448ZM29.6713 12.9473C30.8582 12.9473 31.8182 13.9423 31.8182 15.1815V24.7292C31.8182 25.951 30.8582 26.9633 29.6713 26.9633C28.4844 26.9633 27.5244 25.9684 27.5244 24.7292V15.1641C27.5244 13.9423 28.4844 12.9473 29.6713 12.9473ZM2.54691 12.9473C3.73382 12.9473 4.69382 13.9423 4.69382 15.1815V24.7292C4.69382 25.951 3.73382 26.9633 2.54691 26.9633C1.36 26.9284 0.400002 25.9335 0.400002 24.7117V15.1641C0.400002 13.9423 1.36 12.9473 2.54691 12.9473ZM26.1105 12.9473V29.3023C26.1105 30.5939 25.0982 31.6586 23.8589 31.6586H22.2182C22.2705 31.8506 22.3055 32.0601 22.3055 32.2695V36.9823C22.3055 38.2041 21.3455 39.2164 20.1585 39.2164C18.9716 39.2164 18.0116 38.2215 18.0116 36.9823V32.2695C18.0116 32.0601 18.0465 31.8506 18.0989 31.6586H14.1193C14.1716 31.8506 14.2065 32.0601 14.2065 32.2695V36.9823C14.2065 38.2041 13.2465 39.2164 12.0596 39.2164C10.8727 39.199 9.93018 38.2041 9.93018 36.9648V32.2521C9.93018 32.0426 9.96509 31.8332 10.0175 31.6412H8.37673C7.13746 31.6412 6.10764 30.5764 6.10764 29.2848V12.9473H26.1105ZM11.8327 8.47899C11.2393 8.47899 10.768 7.9728 10.768 7.36189C10.768 6.75099 11.2393 6.2448 11.8327 6.2448C12.4262 6.2448 12.8975 6.73353 12.8975 7.36189C12.8975 7.9728 12.4087 8.47899 11.8327 8.47899ZM21.0313 4.01062L21.4327 3.38226L21.8342 2.77135L22.7244 1.37499C22.8291 1.20044 22.7942 0.973531 22.6196 0.868804C22.4451 0.746622 22.2356 0.798986 22.1135 0.973531L21.1709 2.45717L20.7695 3.08553L20.368 3.71389C19.0589 3.19026 17.6276 2.91099 16.1091 2.91099C14.5905 2.91099 13.1593 3.20771 11.8676 3.73135L11.4487 3.08553L11.0647 2.45717L10.1047 0.973531C9.98255 0.798986 9.77309 0.746622 9.59855 0.868804C9.44146 0.973531 9.38909 1.20044 9.51127 1.37499L10.4015 2.77135L10.8029 3.38226L11.2044 4.01062C8.16727 5.4768 6.10764 8.26953 6.10764 11.4463H26.0931C26.1105 8.26953 24.0509 5.4768 21.0313 4.01062Z" fill="#929297"/>
</svg>
