<svg width="32" height="32" viewBox="0 0 32 32" fill="none" xmlns="http://www.w3.org/2000/svg">
<path fill-rule="evenodd" clip-rule="evenodd" d="M18.9237 6.82987C19.3194 6.82987 19.6336 7.15569 19.6336 7.5746C19.6336 7.98187 19.3194 8.31932 18.9237 8.31932C18.5281 8.31932 18.2139 7.98187 18.2139 7.5746C18.2139 7.16732 18.5397 6.82987 18.9237 6.82987ZM25.1143 11.2982C25.9056 11.2982 26.5456 11.9615 26.5456 12.7877V19.1528C26.5456 19.9673 25.9056 20.6422 25.1143 20.6422C24.323 20.6422 23.683 19.979 23.683 19.1528V12.7761C23.683 11.9615 24.323 11.2982 25.1143 11.2982ZM7.03137 11.2982C7.82264 11.2982 8.46264 11.9615 8.46264 12.7877V19.1528C8.46264 19.9673 7.82264 20.6422 7.03137 20.6422C6.2401 20.619 5.6001 19.9557 5.6001 19.1411V12.7761C5.6001 11.9615 6.2401 11.2982 7.03137 11.2982ZM22.7405 11.2982V22.2015C22.7405 23.0626 22.0656 23.7724 21.2394 23.7724H20.1456C20.1805 23.9004 20.2037 24.0401 20.2037 24.1797V27.3215C20.2037 28.136 19.5637 28.811 18.7725 28.811C17.9812 28.811 17.3412 28.1477 17.3412 27.3215V24.1797C17.3412 24.0401 17.3645 23.9004 17.3994 23.7724H14.7463C14.7812 23.9004 14.8045 24.0401 14.8045 24.1797V27.3215C14.8045 28.136 14.1645 28.811 13.3732 28.811C12.5819 28.7993 11.9536 28.136 11.9536 27.3099V24.1681C11.9536 24.0284 11.9768 23.8888 12.0117 23.7608H10.9179C10.0917 23.7608 9.40519 23.051 9.40519 22.1899V11.2982H22.7405ZM13.2219 8.31932C12.8263 8.31932 12.5121 7.98187 12.5121 7.5746C12.5121 7.16732 12.8263 6.82987 13.2219 6.82987C13.6176 6.82987 13.9317 7.15569 13.9317 7.5746C13.9317 7.98187 13.6059 8.31932 13.2219 8.31932ZM19.3543 5.34041L19.6219 4.92151L19.8896 4.51423L20.483 3.58332C20.5528 3.46696 20.5296 3.31569 20.4132 3.24587C20.2968 3.16441 20.1572 3.19932 20.0757 3.31569L19.4474 4.30478L19.1797 4.72369L18.9121 5.1426C18.0394 4.79351 17.0852 4.60732 16.0728 4.60732C15.0605 4.60732 14.1063 4.80514 13.2452 5.15423L12.9659 4.72369L12.7099 4.30478L12.0699 3.31569C11.9885 3.19932 11.8488 3.16441 11.7325 3.24587C11.6277 3.31569 11.5928 3.46696 11.6743 3.58332L12.2677 4.51423L12.5354 4.92151L12.803 5.34041C10.7783 6.31787 9.40519 8.17969 9.40519 10.2975H22.7288C22.7405 8.17969 21.3674 6.31787 19.3543 5.34041Z" fill="#191820"/>
</svg>
