<svg width="32" height="40" viewBox="0 0 32 40" fill="none" xmlns="http://www.w3.org/2000/svg">
<path fill-rule="evenodd" clip-rule="evenodd" d="M21.2273 7.03124C22.4317 5.40797 23.3393 3.13889 23.0077 0.799988C21.0528 0.939624 18.7488 2.24871 17.4222 3.95925C16.2004 5.5127 15.2055 7.79923 15.5895 10.0334C17.7364 10.1032 19.9531 8.75923 21.2273 7.03124ZM31.8222 28.9715C30.9669 30.9613 30.548 31.8515 29.4484 33.6319C27.9124 36.0929 25.7306 39.1649 23.0426 39.1998C20.6513 39.2173 20.0404 37.5591 16.7764 37.5766C13.5299 37.594 12.8492 39.2173 10.4579 39.1998C7.76992 39.1824 5.71029 36.4071 4.15684 33.9286C-0.154415 27.0341 -0.608232 18.9352 2.04485 14.6414C3.92993 11.5869 6.91465 9.78905 9.72482 9.78905C12.5699 9.78905 14.3677 11.4298 16.7415 11.4298C19.0281 11.4298 20.4244 9.78905 23.7233 9.78905C26.2193 9.78905 28.8724 11.2203 30.7575 13.6814C24.5786 17.2421 25.5909 26.493 31.8222 28.9715Z" fill="#929297"/>
</svg>
