<svg width="32" height="32" viewBox="0 0 32 32" fill="none" xmlns="http://www.w3.org/2000/svg">
<path fill-rule="evenodd" clip-rule="evenodd" d="M19.4845 7.35412C20.2874 6.27194 20.8925 4.75922 20.6714 3.19995C19.3681 3.29304 17.8321 4.16577 16.9478 5.30613C16.1332 6.34176 15.47 7.86612 15.726 9.35556C17.1572 9.40211 18.635 8.50611 19.4845 7.35412ZM26.5477 21.981C25.9776 23.3075 25.6983 23.901 24.9652 25.0879C23.9412 26.7286 22.4867 28.7766 20.6947 28.7999C19.1005 28.8115 18.6932 27.706 16.5172 27.7177C14.3529 27.7293 13.8991 28.8115 12.3049 28.7999C10.5129 28.7882 9.1398 26.938 8.10417 25.2857C5.23 20.6893 4.92745 15.2901 6.69617 12.4276C7.9529 10.3912 9.94271 9.19266 11.8162 9.19266C13.7129 9.19266 14.9114 10.2865 16.494 10.2865C18.0183 10.2865 18.9492 9.19266 21.1485 9.19266C22.8125 9.19266 24.5812 10.1468 25.8379 11.7876C21.7187 14.1614 22.3936 20.3286 26.5477 21.981Z" fill="#191820"/>
</svg>
