<svg width="36" height="28" viewBox="0 0 36 28" fill="none" xmlns="http://www.w3.org/2000/svg">
<path fill-rule="evenodd" clip-rule="evenodd" d="M12.9393 27.0607C13.5251 27.6464 14.4749 27.6464 15.0607 27.0607C15.6464 26.4749 15.6464 25.5251 15.0607 24.9393L5.62132 15.5L34 15.5C34.8284 15.5 35.5 14.8284 35.5 14C35.5 13.1716 34.8284 12.5 34 12.5L5.62132 12.5L15.0607 3.06066C15.6464 2.47487 15.6464 1.52513 15.0607 0.939341C14.4749 0.353554 13.5251 0.353554 12.9393 0.93934L0.941255 12.9374C0.935141 12.9435 0.929078 12.9497 0.923068 12.9559C0.6612 13.2259 0.5 13.5941 0.5 14C0.5 14.2034 0.540479 14.3973 0.613819 14.5742C0.687018 14.7511 0.795526 14.9168 0.939341 15.0607L12.9393 27.0607Z" fill="#86D1D6"/>
</svg>
