<svg width="25" height="28" viewBox="0 0 25 28" fill="none" xmlns="http://www.w3.org/2000/svg">
<path fill-rule="evenodd" clip-rule="evenodd" d="M16.6947 0.36191C16.9246 0.492081 17.0667 0.735858 17.0667 1.00006V5.00006C17.0667 5.40507 16.7384 5.73339 16.3334 5.73339C15.9284 5.73339 15.6 5.40507 15.6 5.00006V2.29526L3.37734 9.62889C3.03005 9.83726 2.57959 9.72465 2.37122 9.37735C2.16284 9.03006 2.27546 8.57961 2.62275 8.37123L15.9561 0.371229C16.1826 0.235299 16.4648 0.23174 16.6947 0.36191Z" fill="black"/>
<path fill-rule="evenodd" clip-rule="evenodd" d="M18.7501 3.73009C18.9483 3.86702 19.0666 4.09255 19.0666 4.33344V9.66677C19.0666 10.0718 18.7383 10.4001 18.3333 10.4001C17.9283 10.4001 17.6 10.0718 17.6 9.66677V5.39487L4.67072 10.2855C4.2919 10.4288 3.86865 10.2379 3.72536 9.85905C3.58207 9.48023 3.773 9.05699 4.15182 8.91369L18.0739 3.64753C18.2992 3.56231 18.552 3.59317 18.7501 3.73009Z" fill="black"/>
<path fill-rule="evenodd" clip-rule="evenodd" d="M15.9257 18.2352C15.9257 16.2978 17.5069 14.7069 19.4539 14.7069H23.503C24.2807 14.7069 24.91 15.3362 24.91 16.1139V20.3565C24.91 21.1341 24.2807 21.7635 23.503 21.7635H19.4539C17.5165 21.7635 15.9257 20.1822 15.9257 18.2352ZM19.4539 16.1736C18.3194 16.1736 17.3923 17.1053 17.3923 18.2352C17.3923 19.3698 18.3241 20.2968 19.4539 20.2968H23.4433V16.1736H19.4539Z" fill="black"/>
<path fill-rule="evenodd" clip-rule="evenodd" d="M1.00006 7.82703C1.40507 7.82703 1.73339 8.15535 1.73339 8.56036V25.4949C1.73339 25.5181 1.74266 25.5444 1.76585 25.5676C1.78904 25.5908 1.81531 25.6 1.83854 25.6H22.7983V21.1448C22.7983 20.7398 23.1266 20.4115 23.5316 20.4115C23.9366 20.4115 24.265 20.7398 24.265 21.1448V25.9822C24.265 26.5608 23.8058 27.0667 23.1876 27.0667H1.83854C0.974873 27.0667 0.266724 26.3585 0.266724 25.4949V8.56036C0.266724 8.15535 0.595048 7.82703 1.00006 7.82703Z" fill="black"/>
<path fill-rule="evenodd" clip-rule="evenodd" d="M18.1472 7.08404C18.1472 6.67903 18.4755 6.35071 18.8806 6.35071H21.224C22.0877 6.35071 22.7958 7.05886 22.7958 7.92253V9.98649C22.7958 10.3915 22.4675 10.7198 22.0625 10.7198C21.6575 10.7198 21.3292 10.3915 21.3292 9.98649V7.92253C21.3292 7.89929 21.3199 7.87302 21.2967 7.84983C21.2735 7.82664 21.2472 7.81737 21.224 7.81737H18.8806C18.4755 7.81737 18.1472 7.48905 18.1472 7.08404Z" fill="black"/>
<path fill-rule="evenodd" clip-rule="evenodd" d="M3.3125 10.0295C3.3125 9.62447 3.64082 9.29614 4.04583 9.29614H23.546C23.7408 9.29614 23.9276 9.37368 24.0652 9.51163C24.2028 9.64959 24.2798 9.83663 24.2793 10.0315L24.265 15.3542C24.265 15.7592 23.9366 16.0875 23.5316 16.0875C23.1266 16.0875 22.7983 15.7592 22.7983 15.3542L22.8106 10.7628H4.04583C3.64082 10.7628 3.3125 10.4345 3.3125 10.0295Z" fill="black"/>
<path fill-rule="evenodd" clip-rule="evenodd" d="M1.73339 8.55314V8.55322L1.7334 8.5533L1.7336 8.55447C1.73388 8.55583 1.73483 8.55978 1.7377 8.56659C1.74355 8.58047 1.75816 8.60795 1.79201 8.6468C1.86285 8.72809 1.99568 8.83339 2.21117 8.9378C2.64206 9.14659 3.28944 9.29619 4.04583 9.29619C4.45084 9.29619 4.77917 9.62452 4.77917 10.0295C4.77917 10.4345 4.45084 10.7629 4.04583 10.7629C3.11809 10.7629 2.24258 10.5828 1.57162 10.2577C0.950472 9.9567 0.266724 9.40051 0.266724 8.55322C0.266724 7.56912 1.09996 6.95794 2.03163 6.61819C3.01463 6.25971 4.43107 6.06409 6.27462 6.06409C6.67963 6.06409 7.00796 6.39241 7.00796 6.79742C7.00796 7.20243 6.67963 7.53075 6.27462 7.53075C4.50625 7.53075 3.2854 7.72212 2.53411 7.99609C2.15887 8.13293 1.94395 8.27497 1.83276 8.38527C1.73339 8.48386 1.73339 8.53693 1.73339 8.55314Z" fill="black"/>
<path d="M19.8911 18.8443C19.5399 18.8443 19.2461 18.5505 19.2461 18.1922C19.2461 17.8339 19.5328 17.54 19.8911 17.54C20.2494 17.54 20.5361 17.8339 20.5361 18.1922C20.5361 18.5505 20.2422 18.8443 19.8911 18.8443Z" fill="#191820"/>
</svg>
