<svg width="21" height="16" viewBox="0 0 21 16" fill="none" xmlns="http://www.w3.org/2000/svg">
<path fill-rule="evenodd" clip-rule="evenodd" d="M20.2771 2.25708C20.5808 2.25708 20.8271 2.50332 20.8271 2.80708V7.02395C20.8271 7.05222 20.8249 7.08044 20.8206 7.10837C20.6874 7.96549 20.0138 8.6391 19.1567 8.77225C19.1288 8.77659 19.1005 8.77877 19.0723 8.77877H18.4699C18.1661 8.77877 17.9199 8.53252 17.9199 8.22877C17.9199 7.92501 18.1661 7.67877 18.4699 7.67877H19.0247C19.3787 7.60851 19.6568 7.3304 19.7271 6.97639V2.80708C19.7271 2.50332 19.9733 2.25708 20.2771 2.25708Z" fill="#191820"/>
<path fill-rule="evenodd" clip-rule="evenodd" d="M4.96808 4.61445C4.96808 4.3107 5.21432 4.06445 5.51808 4.06445H6.7229C7.02665 4.06445 7.2729 4.3107 7.2729 4.61445C7.2729 4.91821 7.02665 5.16445 6.7229 5.16445H6.06808V14.247C6.06808 14.4432 6.22545 14.6006 6.42169 14.6006H14.8554C15.0517 14.6006 15.209 14.4432 15.209 14.247V5.16445H14.5542C14.2505 5.16445 14.0042 4.91821 14.0042 4.61445C14.0042 4.3107 14.2505 4.06445 14.5542 4.06445H15.759C16.0628 4.06445 16.309 4.3107 16.309 4.61445V14.247C16.309 15.0507 15.6592 15.7006 14.8554 15.7006H6.42169C5.61794 15.7006 4.96808 15.0507 4.96808 14.247V4.61445Z" fill="#191820"/>
<path fill-rule="evenodd" clip-rule="evenodd" d="M6.77533 4.61445C6.77533 4.3107 7.02157 4.06445 7.32533 4.06445H9.40967C9.71342 4.06445 9.95967 4.3107 9.95967 4.61445C9.95967 4.91821 9.71342 5.16445 9.40967 5.16445H7.87533V11.1468C8.73658 11.3519 9.41315 12.0285 9.6183 12.8898H11.6589C11.864 12.0285 12.5406 11.3519 13.4018 11.1468V5.16445H11.8675C11.5637 5.16445 11.3175 4.91821 11.3175 4.61445C11.3175 4.3107 11.5637 4.06445 11.8675 4.06445H13.9518C14.2556 4.06445 14.5018 4.3107 14.5018 4.61445V11.6325C14.5018 11.9363 14.2556 12.1825 13.9518 12.1825C13.2556 12.1825 12.6946 12.7435 12.6946 13.4398C12.6946 13.7435 12.4484 13.9898 12.1446 13.9898H9.13256C8.8288 13.9898 8.58256 13.7435 8.58256 13.4398C8.58256 12.7435 8.02157 12.1825 7.32533 12.1825C7.02157 12.1825 6.77533 11.9363 6.77533 11.6325V4.61445Z" fill="#191820"/>
<path fill-rule="evenodd" clip-rule="evenodd" d="M9.57524 4.12458C9.65266 4.08506 9.73835 4.06445 9.82528 4.06445H11.4518C11.5387 4.06445 11.6244 4.08506 11.7018 4.12458C12.4544 4.50873 12.9777 5.28858 12.9777 6.19879C12.9777 7.4905 11.9302 8.53795 10.6385 8.53795C9.34683 8.53795 8.29938 7.4905 8.29938 6.19879C8.29938 5.28858 8.82262 4.50873 9.57524 4.12458ZM9.97029 5.16445C9.62489 5.38483 9.39938 5.76593 9.39938 6.19879C9.39938 6.88299 9.95434 7.43795 10.6385 7.43795C11.3227 7.43795 11.8777 6.88299 11.8777 6.19879C11.8777 5.76593 11.6522 5.38483 11.3068 5.16445H9.97029Z" fill="#191820"/>
<path fill-rule="evenodd" clip-rule="evenodd" d="M13.1006 4.61445C13.1006 4.3107 13.3468 4.06445 13.6506 4.06445H20.2771C20.5808 4.06445 20.8271 4.3107 20.8271 4.61445C20.8271 4.91821 20.5808 5.16445 20.2771 5.16445H13.6506C13.3468 5.16445 13.1006 4.91821 13.1006 4.61445Z" fill="#191820"/>
<path fill-rule="evenodd" clip-rule="evenodd" d="M0.450012 4.61445C0.450012 4.3107 0.696256 4.06445 1.00001 4.06445H13.6506C13.9544 4.06445 14.2006 4.3107 14.2006 4.61445C14.2006 4.91821 13.9544 5.16445 13.6506 5.16445H1.00001C0.696256 5.16445 0.450012 4.91821 0.450012 4.61445Z" fill="#191820"/>
<path fill-rule="evenodd" clip-rule="evenodd" d="M1.00001 4.06445C1.30377 4.06445 1.55001 4.3107 1.55001 4.61445V6.98267C1.61154 7.33783 1.89109 7.61739 2.24625 7.67891H2.80724C3.111 7.67891 3.35724 7.92515 3.35724 8.22891C3.35724 8.53267 3.111 8.77891 2.80724 8.77891H2.20483C2.18029 8.77891 2.15578 8.77727 2.13145 8.77399C1.25942 8.65661 0.572318 7.9695 0.454929 7.09747C0.451655 7.07315 0.450012 7.04863 0.450012 7.02409V4.61445C0.450012 4.3107 0.696256 4.06445 1.00001 4.06445Z" fill="#191820"/>
<path fill-rule="evenodd" clip-rule="evenodd" d="M2.13145 0.454868C2.15578 0.451594 2.18029 0.449951 2.20483 0.449951H19.0723C19.0932 0.449951 19.114 0.451139 19.1348 0.453508C20.0216 0.55486 20.7222 1.2555 20.8236 2.14232C20.8259 2.16305 20.8271 2.1839 20.8271 2.20477V2.80718C20.8271 3.11094 20.5809 3.35718 20.2771 3.35718C19.9734 3.35718 19.7271 3.11094 19.7271 2.80718V2.2401C19.6743 1.88374 19.3933 1.60272 19.037 1.54995H2.24625C1.89109 1.61148 1.61154 1.89103 1.55001 2.24619V7.02405C1.55001 7.3278 1.30377 7.57405 1.00001 7.57405C0.696256 7.57405 0.450012 7.3278 0.450012 7.02405V2.20477C0.450012 2.18023 0.451655 2.15572 0.454929 2.13139C0.572318 1.25936 1.25942 0.572257 2.13145 0.454868Z" fill="#191820"/>
</svg>
