<svg width="40" height="40" viewBox="0 0 40 40" fill="none" xmlns="http://www.w3.org/2000/svg">
<path fill-rule="evenodd" clip-rule="evenodd" d="M30.5303 10.5303C30.8232 10.2374 30.8232 9.76256 30.5303 9.46967C30.2374 9.17678 29.7626 9.17678 29.4697 9.46967L20 18.9393L10.5303 9.46967C10.2374 9.17678 9.76256 9.17678 9.46967 9.46967C9.17678 9.76256 9.17678 10.2374 9.46967 10.5303L18.9393 20L9.46967 29.4697C9.17678 29.7626 9.17678 30.2374 9.46967 30.5303C9.76256 30.8232 10.2374 30.8232 10.5303 30.5303L20 21.0607L29.4697 30.5303C29.7626 30.8232 30.2374 30.8232 30.5303 30.5303C30.8232 30.2374 30.8232 29.7626 30.5303 29.4697L21.0607 20L30.5303 10.5303Z" fill="#191820"/>
</svg>
