<svg width="26" height="21" viewBox="0 0 26 21" fill="none" xmlns="http://www.w3.org/2000/svg">
<path fill-rule="evenodd" clip-rule="evenodd" d="M13 7.20008C14.3991 7.20008 15.5333 6.06587 15.5333 4.66675C15.5333 3.26763 14.3991 2.13341 13 2.13341C11.6008 2.13341 10.4666 3.26763 10.4666 4.66675C10.4666 6.06587 11.6008 7.20008 13 7.20008ZM13 8.66675C15.2091 8.66675 17 6.87589 17 4.66675C17 2.45761 15.2091 0.666748 13 0.666748C11.0402 0.666748 9.4097 2.07602 9.06647 3.93641C9.04456 3.93444 9.02236 3.93343 8.99994 3.93343H0.999935C0.594926 3.93343 0.266601 4.26176 0.266602 4.66677C0.266602 5.07178 0.594926 5.4001 0.999935 5.4001L8.99994 5.4001C9.02237 5.4001 9.04456 5.39909 9.06648 5.39712C9.40972 7.25749 11.0403 8.66675 13 8.66675ZM24.9999 5.4001C25.4049 5.4001 25.7333 5.07177 25.7333 4.66677C25.7333 4.26176 25.4049 3.93343 24.9999 3.93343L19.6666 3.93343C19.2616 3.93343 18.9333 4.26176 18.9333 4.66676C18.9333 5.07177 19.2616 5.4001 19.6666 5.4001H24.9999ZM24.9999 17.4001C25.4049 17.4001 25.7333 17.0718 25.7333 16.6668C25.7333 16.2618 25.4049 15.9334 24.9999 15.9334H16.9999C16.9775 15.9334 16.9553 15.9344 16.9334 15.9364C16.5902 14.076 14.9597 12.6667 13 12.6667C10.7908 12.6667 8.99995 14.4576 8.99995 16.6667C8.99995 18.8759 10.7908 20.6667 13 20.6667C14.9596 20.6667 16.5902 19.2575 16.9334 17.3971C16.9553 17.3991 16.9775 17.4001 16.9999 17.4001H24.9999ZM7.0666 16.6668C7.0666 17.0718 6.73828 17.4001 6.33327 17.4001H0.999935C0.594926 17.4001 0.266602 17.0718 0.266602 16.6668C0.266602 16.2618 0.594926 15.9334 0.999935 15.9334H6.33327C6.73828 15.9334 7.0666 16.2618 7.0666 16.6668ZM15.5333 16.6667C15.5333 18.0659 14.3991 19.2001 13 19.2001C11.6008 19.2001 10.4666 18.0659 10.4666 16.6667C10.4666 15.2676 11.6008 14.1334 13 14.1334C14.3991 14.1334 15.5333 15.2676 15.5333 16.6667Z" fill="#191820"/>
</svg>
