<svg width="26" height="26" viewBox="0 0 26 26" fill="none" xmlns="http://www.w3.org/2000/svg">
<path fill-rule="evenodd" clip-rule="evenodd" d="M1 6C1 3.23858 3.23858 1 6 1H20C22.7614 1 25 3.23858 25 6V20C25 22.7614 22.7614 25 20 25H6C3.23858 25 1 22.7614 1 20V6Z" stroke="#929297" stroke-width="1.5" stroke-linecap="round" stroke-linejoin="round"/>
<path fill-rule="evenodd" clip-rule="evenodd" d="M17.8 12.244C18.1038 14.2923 17.0597 16.3046 15.21 17.2356C13.3603 18.1666 11.1221 17.8064 9.65785 16.3422C8.1936 14.8779 7.83344 12.6397 8.76443 10.79C9.69543 8.94034 11.7077 7.89622 13.756 8.19997C15.8476 8.51012 17.4899 10.1524 17.8 12.244Z" stroke="#929297" stroke-width="1.5" stroke-linecap="round" stroke-linejoin="round"/>
</svg>
