<svg width="24" height="24" viewBox="0 0 24 24" fill="none" xmlns="http://www.w3.org/2000/svg">
<path fill-rule="evenodd" clip-rule="evenodd" d="M8.25 2C5.62665 2 3.5 4.12665 3.5 6.75C3.5 9.37335 5.62665 11.5 8.25 11.5C10.8734 11.5 13 9.37335 13 6.75C13 4.12665 10.8734 2 8.25 2ZM5 6.75C5 4.95507 6.45507 3.5 8.25 3.5C10.0449 3.5 11.5 4.95507 11.5 6.75C11.5 8.54493 10.0449 10 8.25 10C6.45507 10 5 8.54493 5 6.75ZM4.75 14C2.12665 14 0 16.1266 0 18.75V20.75C0 21.1642 0.335786 21.5 0.75 21.5C1.16421 21.5 1.5 21.1642 1.5 20.75V18.75C1.5 16.9551 2.95507 15.5 4.75 15.5H11.75C13.5449 15.5 15 16.9551 15 18.75V20.75C15 21.1642 15.3358 21.5 15.75 21.5C16.1642 21.5 16.5 21.1642 16.5 20.75V18.75C16.5 16.1266 14.3734 14 11.75 14H4.75ZM17.2197 7.21967C17.5126 6.92678 17.9874 6.92678 18.2803 7.21967L20.25 9.18934L22.2197 7.21967C22.5126 6.92678 22.9874 6.92678 23.2803 7.21967C23.5732 7.51256 23.5732 7.98744 23.2803 8.28033L21.3107 10.25L23.2803 12.2197C23.5732 12.5126 23.5732 12.9874 23.2803 13.2803C22.9874 13.5732 22.5126 13.5732 22.2197 13.2803L20.25 11.3107L18.2803 13.2803C17.9874 13.5732 17.5126 13.5732 17.2197 13.2803C16.9268 12.9874 16.9268 12.5126 17.2197 12.2197L19.1893 10.25L17.2197 8.28033C16.9268 7.98744 16.9268 7.51256 17.2197 7.21967Z" fill="#191820"/>
</svg>
