<svg width="24" height="24" viewBox="0 0 24 24" fill="none" xmlns="http://www.w3.org/2000/svg">
<path fill-rule="evenodd" clip-rule="evenodd" d="M3.5 6.75C3.5 4.12665 5.62665 2 8.25 2C10.8734 2 13 4.12665 13 6.75C13 9.37335 10.8734 11.5 8.25 11.5C5.62665 11.5 3.5 9.37335 3.5 6.75ZM8.25 3.5C6.45507 3.5 5 4.95507 5 6.75C5 8.54493 6.45507 10 8.25 10C10.0449 10 11.5 8.54493 11.5 6.75C11.5 4.95507 10.0449 3.5 8.25 3.5ZM0 18.75C0 16.1266 2.12665 14 4.75 14H11.75C14.3734 14 16.5 16.1266 16.5 18.75V20.75C16.5 21.1642 16.1642 21.5 15.75 21.5C15.3358 21.5 15 21.1642 15 20.75V18.75C15 16.9551 13.5449 15.5 11.75 15.5H4.75C2.95507 15.5 1.5 16.9551 1.5 18.75V20.75C1.5 21.1642 1.16421 21.5 0.75 21.5C0.335786 21.5 0 21.1642 0 20.75V18.75ZM23.2803 9.28033C23.5732 8.98744 23.5732 8.51256 23.2803 8.21967C22.9874 7.92678 22.5126 7.92678 22.2197 8.21967L18.75 11.6893L17.2803 10.2197C16.9874 9.92678 16.5126 9.92678 16.2197 10.2197C15.9268 10.5126 15.9268 10.9874 16.2197 11.2803L18.2197 13.2803C18.5126 13.5732 18.9874 13.5732 19.2803 13.2803L23.2803 9.28033Z" fill="#191820"/>
</svg>
