<svg width="120" height="36" viewBox="0 0 120 36" fill="none" xmlns="http://www.w3.org/2000/svg">
<g clip-path="url(#clip0)">
<path d="M46.7506 11.0932H44.4485V8.64771H49.4887V25.2243C49.4887 26.4293 49.8132 26.8748 50.7259 26.8748C51.1975 26.8748 51.6386 26.7888 52.024 26.6976L52.171 29.0823C51.5524 29.3203 50.7563 29.4671 49.8994 29.4671C47.425 29.4671 46.7455 27.9077 46.7455 25.5787V11.0932H46.7506Z" fill="#1D1D1B"/>
<path d="M66.4751 26.7229H68.5084V29.138H64.2339V26.9001C63.4987 28.0494 61.8153 29.4317 59.2495 29.4317C56.2731 29.4317 54.9446 27.695 54.9446 24.2217V18.1258H52.8809V15.7107H57.6878V23.9534C57.6878 25.7508 58.129 26.8394 60.3144 26.8394C61.7595 26.8394 63.1742 26.0141 63.7624 24.9863V18.1258H61.1358V15.7107H66.47V26.7229H66.4751Z" fill="#1D1D1B"/>
<path d="M80.916 25.8115L81.6259 28.1102C80.2721 28.8747 78.3554 29.462 76.3779 29.462C71.9563 29.462 70.1867 26.2824 70.1867 22.3939C70.1867 18.627 72.22 15.417 76.4945 15.417C78.6191 15.417 80.3278 16.0347 81.4789 16.5663L80.9211 21.275H78.6799V18.1561C78.0309 17.9182 77.4123 17.8017 76.53 17.8017C74.2026 17.8017 73.1682 19.6852 73.1682 22.1863C73.1682 24.7483 74.0251 26.8697 76.677 26.8697C78.1779 26.8697 79.8005 26.4292 80.916 25.8115Z" fill="#1D1D1B"/>
<path d="M93.0651 26.8444L90.2053 22.7231L87.9945 24.5762V26.7229H90.5602V29.138H83.2789V26.7229H85.2564V11.0932H83.2231V8.64771H87.9996V22.3079L93.0398 18.1258H90.8898V15.7107H98.0545V18.1258H95.9908L92.2183 21.3358L96.0517 26.7229H98.6174V29.138H93.0752V26.8444H93.0651Z" fill="#1D1D1B"/>
<path d="M101.143 33.2289H104.712L106.629 28.9304L101.913 18.1257H99.4388V15.7106H104.895V18.065L107.993 25.8064L111.263 18.1207H108.049V15.7056H115.802V18.1207H114.032L107.577 33.1631C106.695 35.1934 105.397 35.7858 103.86 35.7858C102.77 35.7858 101.797 35.6086 101.148 35.3149V33.2289H101.143Z" fill="#1D1D1B"/>
<path d="M35.8945 11.8476L29.1659 5.12385L29.1558 5.13397L24.0091 0H19.9375L17.9346 1.95435L15.9114 0H11.8601L5.13141 6.71872L5.17198 6.75922L0 11.9236V15.9892L1.95724 17.9892L0 20.0043V24.0497L6.72864 30.7684L16.8039 20.708C16.8039 24.9307 16.8039 32.181 16.8039 33.5126H14.8669V35.796C16.6264 35.796 17.3363 35.796 19.0958 35.796C19.0958 34.0797 19.0958 22.794 19.0958 20.6422L29.1659 30.6975L35.8945 23.9788V19.9334L33.9373 17.9132L35.8945 15.9133V11.8476ZM12.788 2.23282H15.0596L17.9346 5.10359L20.8096 2.23282H23.0812L27.5687 6.71366L17.9295 16.3437L8.29545 6.72378L12.788 2.23282ZM6.72864 27.6141L2.23612 23.1282V20.8599L5.11113 17.9892L2.23612 15.1184V12.8501L6.72864 8.36422L16.3678 17.9892L6.72864 27.6141ZM29.1659 27.5381L19.5318 17.9183L29.171 8.29334L33.6584 12.7742V15.0424L30.7834 17.9132L33.6584 20.784V23.0522L29.1659 27.5381Z" fill="#1D1D1B"/>
<path d="M23.0812 2.23797H20.8096L17.9346 5.10875L15.0596 2.23291H12.788L8.29547 6.71881L17.9295 16.3387L27.5687 6.71375L23.0812 2.23797ZM17.9498 13.6097L15.09 10.7541L17.9498 7.89851L20.8096 10.7541L17.9498 13.6097Z" fill="#FCFCFC"/>
<path d="M120 25.1028H115.959V29.1381H120V25.1028Z" fill="#FCFCFC"/>
</g>
<defs>
<clipPath id="clip0">
<path d="M0 0H120V35.8011H0V0Z" fill="white"/>
</clipPath>
</defs>
</svg>
