<svg width="24" height="20" viewBox="0 0 24 20" fill="none" xmlns="http://www.w3.org/2000/svg">
<path fill-rule="evenodd" clip-rule="evenodd" d="M1.51068 4.96392C1.51068 5.37994 1.17136 5.71926 0.755338 5.71926C0.339321 5.71926 0 5.37994 0 4.96392V1.42196C0 1.00595 0.339321 0.666626 0.755338 0.666626H4.29729C4.71563 0.666626 5.05263 1.00595 5.05263 1.42196C5.05263 1.83798 4.71563 2.1773 4.29729 2.1773H1.51068V4.96392ZM23.2447 0.666626H19.7027C19.2844 0.666626 18.9474 1.00595 18.9474 1.42196C18.9474 1.83798 19.2844 2.17498 19.7027 2.17498H22.4893V4.96392C22.4893 5.37994 22.8286 5.71926 23.2447 5.71926C23.663 5.71926 24 5.37994 24 4.96392V1.42196C24 1.00595 23.663 0.666626 23.2447 0.666626ZM20.2093 17.0877C20.6817 17.0877 21.0682 16.7647 21.0682 16.3673V5.17863C21.0682 4.77911 20.6817 4.4561 20.2093 4.4561C19.7368 4.4561 19.3528 4.77911 19.3528 5.17863V16.3673C19.3528 16.7647 19.7368 17.0877 20.2093 17.0877ZM15.5646 5.12324C15.5646 4.75523 15.9486 4.4561 16.4211 4.4561C16.8935 4.4561 17.2775 4.75523 17.2775 5.12324V12.6291C17.2775 12.9991 16.8935 13.2982 16.4211 13.2982C15.9486 13.2982 15.5646 12.9991 15.5646 12.6291V5.12324ZM16.4211 14.9668C16.1962 14.9668 15.9739 15.0603 15.8147 15.2195C15.6556 15.3786 15.5646 15.5984 15.5646 15.8258C15.5646 16.0506 15.6556 16.2729 15.8147 16.4321C15.9739 16.5913 16.1962 16.6822 16.4211 16.6822C16.6459 16.6822 16.8682 16.5913 17.0274 16.4321C17.1865 16.2729 17.2775 16.0506 17.2775 15.8258C17.2775 15.5984 17.1865 15.3786 17.0274 15.2195C16.8682 15.0603 16.6459 14.9668 16.4211 14.9668ZM9.50021 15.2195C9.65937 15.0603 9.87916 14.9668 10.1065 14.9668C10.3314 14.9668 10.5537 15.0603 10.7128 15.2195C10.872 15.3786 10.9629 15.5984 10.9629 15.8258C10.9629 16.0506 10.872 16.2729 10.7128 16.4321C10.5537 16.5913 10.3314 16.6822 10.1065 16.6822C9.87916 16.6822 9.65937 16.5913 9.50021 16.4321C9.33853 16.2729 9.24758 16.0506 9.24758 15.8258C9.24758 15.5984 9.33853 15.3786 9.50021 15.2195ZM7.57768 14.9668C7.35284 14.9668 7.13053 15.0603 6.97137 15.2195C6.81221 15.3786 6.72126 15.5984 6.72126 15.8258C6.72126 16.0506 6.81221 16.2729 6.97137 16.4321C7.13053 16.5913 7.35284 16.6822 7.57768 16.6822C7.80253 16.6822 8.02484 16.5913 8.184 16.4321C8.34316 16.2729 8.43663 16.0506 8.43663 15.8258C8.43663 15.5984 8.34316 15.3786 8.184 15.2195C8.02484 15.0603 7.80253 14.9668 7.57768 14.9668ZM9.24884 5.12324C9.24884 4.75523 9.63284 4.4561 10.1053 4.4561C10.5777 4.4561 10.9617 4.75523 10.9617 5.12324V12.6291C10.9617 12.9991 10.5777 13.2982 10.1053 13.2982C9.63284 13.2982 9.24884 12.9991 9.24884 12.6291V5.12324ZM7.57895 4.4561C7.10653 4.4561 6.72253 4.75523 6.72253 5.12324V12.6291C6.72253 12.9991 7.10653 13.2982 7.57895 13.2982C8.05137 13.2982 8.43537 12.9991 8.43537 12.6291V5.12324C8.43537 4.75523 8.05137 4.4561 7.57895 4.4561ZM13.0371 5.17651C13.0371 4.77911 13.4211 4.4561 13.8935 4.4561C14.3659 4.4561 14.7524 4.77911 14.7524 5.17651V16.3651C14.7524 16.7647 14.3659 17.0877 13.8935 17.0877C13.4211 17.0877 13.0371 16.7647 13.0371 16.3651V5.17651ZM3.78947 4.4561C3.31705 4.4561 2.93305 4.77911 2.93305 5.17651V16.3651C2.93305 16.7647 3.31705 17.0877 3.78947 17.0877C4.26189 17.0877 4.64589 16.7647 4.64589 16.3651V5.17651C4.64589 4.77911 4.26189 4.4561 3.78947 4.4561ZM4.29729 18.1049H1.50835V15.317C1.50835 14.8985 1.17136 14.5614 0.755338 14.5614C0.336997 14.5614 0 14.8985 0 15.317V18.8606C0 19.2768 0.336997 19.614 0.755338 19.614H4.29729C4.71331 19.614 5.05263 19.2768 5.05263 18.8606C5.05263 18.4444 4.71331 18.1049 4.29729 18.1049ZM22.4893 15.317C22.4893 14.8985 22.8286 14.5614 23.2447 14.5614C23.663 14.5614 24 14.8985 24 15.317V18.8606C24 19.2768 23.663 19.614 23.2447 19.614H19.7027C19.2844 19.614 18.9474 19.2768 18.9474 18.8606C18.9474 18.4421 19.2844 18.1049 19.7027 18.1049H22.4893V15.317Z" fill="#191820"/>
</svg>
