<svg width="24" height="20" viewBox="0 0 24 20" fill="none" xmlns="http://www.w3.org/2000/svg">
<path fill-rule="evenodd" clip-rule="evenodd" d="M3.5 4.75C3.5 2.12665 5.62665 0 8.25 0C10.8734 0 13 2.12665 13 4.75C13 7.37335 10.8734 9.5 8.25 9.5C5.62665 9.5 3.5 7.37335 3.5 4.75ZM8.25 1.5C6.45507 1.5 5 2.95507 5 4.75C5 6.54493 6.45507 8 8.25 8C10.0449 8 11.5 6.54493 11.5 4.75C11.5 2.95507 10.0449 1.5 8.25 1.5ZM0 16.75C0 14.1266 2.12665 12 4.75 12H11.75C14.3734 12 16.5 14.1266 16.5 16.75V18.75C16.5 19.1642 16.1642 19.5 15.75 19.5C15.3358 19.5 15 19.1642 15 18.75V16.75C15 14.9551 13.5449 13.5 11.75 13.5H4.75C2.95507 13.5 1.5 14.9551 1.5 16.75V18.75C1.5 19.1642 1.16421 19.5 0.75 19.5C0.335786 19.5 0 19.1642 0 18.75V16.75ZM23.2803 7.28033C23.5732 6.98744 23.5732 6.51256 23.2803 6.21967C22.9874 5.92678 22.5126 5.92678 22.2197 6.21967L18.75 9.68934L17.2803 8.21967C16.9874 7.92678 16.5126 7.92678 16.2197 8.21967C15.9268 8.51256 15.9268 8.98744 16.2197 9.28033L18.2197 11.2803C18.5126 11.5732 18.9874 11.5732 19.2803 11.2803L23.2803 7.28033Z" fill="#191820"/>
</svg>
