<svg width="26" height="26" viewBox="0 0 26 26" fill="none" xmlns="http://www.w3.org/2000/svg">
<path fill-rule="evenodd" clip-rule="evenodd" d="M6.59988 24.085C12.722 27.6196 20.5504 25.522 24.085 19.3999C27.6196 13.2777 25.522 5.44939 19.3999 1.91477C13.3326 -1.58815 5.58968 0.440569 2.0109 6.43612L1.54343 2.66246C1.49817 2.29707 1.16526 2.03755 0.799866 2.08281C0.434469 2.12807 0.17495 2.46098 0.220214 2.82638L0.90055 8.31844C0.947599 8.69825 1.30404 8.96056 1.68066 8.89253L7.26973 7.88299C7.63205 7.81754 7.87272 7.47077 7.80728 7.10844C7.74183 6.74611 7.39505 6.50545 7.03273 6.57089L3.40248 7.22662C6.54179 2.00373 13.3012 0.241199 18.5999 3.30041C23.9568 6.3932 25.7922 13.243 22.6994 18.5999C19.6066 23.9568 12.7568 25.7922 7.39988 22.6994C7.01725 22.4785 6.52797 22.6096 6.30706 22.9922C6.08614 23.3748 6.21725 23.8641 6.59988 24.085ZM12.5236 19.46H13.7334V18.0989C16.0019 17.9024 17 16.5564 17 15.0139C17 12.9874 15.3062 12.3976 13.7334 11.9742V9.37305C14.4745 9.52428 15.1852 9.87211 15.7599 10.4317L16.7731 9.11596C15.9867 8.35982 14.9584 7.89101 13.7334 7.7549V6.33335H12.5236V7.73978C10.5728 7.90613 9.31755 9.11596 9.31755 10.6585C9.31755 12.6396 10.9659 13.1991 12.5236 13.5923V16.511C11.4196 16.3447 10.5576 15.7851 9.98296 15.1651L8.99997 16.5262C9.78636 17.3882 10.9508 17.978 12.5236 18.0989V19.46ZM15.2004 15.1802C15.2004 15.7549 14.7769 16.3598 13.7334 16.5262V13.9099L14.0181 14.0042C14.7059 14.2501 15.2004 14.5798 15.2004 15.1802ZM11.1323 10.5375C11.1323 9.87211 11.6616 9.38817 12.5236 9.29744V11.6566C11.7221 11.4298 11.1323 11.1273 11.1323 10.5375Z" fill="#191820"/>
</svg>
