<svg width="20" height="20" viewBox="0 0 20 20" fill="none" xmlns="http://www.w3.org/2000/svg">
<path fill-rule="evenodd" clip-rule="evenodd" d="M8.5 0.25C3.94365 0.25 0.25 3.94365 0.25 8.5C0.25 13.0563 3.94365 16.75 8.5 16.75C10.5081 16.75 12.3487 16.0325 13.7793 14.84L18.4697 19.5304C18.7626 19.8233 19.2375 19.8233 19.5304 19.5304C19.8233 19.2375 19.8233 18.7626 19.5304 18.4697L14.84 13.7793C16.0325 12.3487 16.75 10.5081 16.75 8.5C16.75 3.94365 13.0563 0.25 8.5 0.25ZM13.3287 13.2166C14.5174 11.9998 15.25 10.3355 15.25 8.5C15.25 4.77208 12.2279 1.75 8.5 1.75C4.77208 1.75 1.75 4.77208 1.75 8.5C1.75 12.2279 4.77208 15.25 8.5 15.25C10.3355 15.25 11.9998 14.5174 13.2166 13.3287C13.2331 13.3083 13.2508 13.2886 13.2697 13.2697C13.2886 13.2508 13.3083 13.2331 13.3287 13.2166Z" fill="#191820"/>
</svg>
