<svg width="44" height="48" viewBox="0 0 44 48" fill="none" xmlns="http://www.w3.org/2000/svg">
<path fill-rule="evenodd" clip-rule="evenodd" d="M29.4656 0.88313C29.868 1.11093 30.1167 1.53754 30.1167 1.99989V8.99989C30.1167 9.70865 29.5421 10.2832 28.8333 10.2832C28.1246 10.2832 27.55 9.70865 27.55 8.99989V4.2665L6.16026 17.1003C5.5525 17.465 4.7642 17.2679 4.39954 16.6602C4.03488 16.0524 4.23196 15.2641 4.83972 14.8994L28.1731 0.899437C28.5695 0.66156 29.0633 0.655331 29.4656 0.88313Z" fill="black"/>
<path fill-rule="evenodd" clip-rule="evenodd" d="M33.0628 6.7773C33.4096 7.01692 33.6166 7.41159 33.6166 7.83315V17.1665C33.6166 17.8752 33.0421 18.4498 32.3333 18.4498C31.6245 18.4498 31.05 17.8752 31.05 17.1665V9.69066L8.42378 18.2493C7.76086 18.5 7.02017 18.1659 6.76942 17.503C6.51866 16.84 6.85278 16.0994 7.51571 15.8486L31.8793 6.63281C32.2736 6.48367 32.716 6.53768 33.0628 6.7773Z" fill="black"/>
<path fill-rule="evenodd" clip-rule="evenodd" d="M28.1198 32.1613C28.1198 28.7708 30.8869 25.9868 34.2942 25.9868H41.3801C42.7411 25.9868 43.8424 27.0881 43.8424 28.449V35.8736C43.8424 37.2345 42.7411 38.3358 41.3801 38.3358H34.2942C30.9038 38.3358 28.1198 35.5686 28.1198 32.1613ZM34.2942 28.5535C32.3087 28.5535 30.6864 30.1841 30.6864 32.1613C30.6864 34.1468 32.317 35.7691 34.2942 35.7691H41.2757V28.5535H34.2942Z" fill="black"/>
<path fill-rule="evenodd" clip-rule="evenodd" d="M2.00001 13.9473C2.70877 13.9473 3.28334 14.5218 3.28334 15.2306V44.866C3.28334 44.9067 3.29956 44.9526 3.34014 44.9932C3.38072 45.0338 3.4267 45.05 3.46736 45.05H40.1469V37.2533C40.1469 36.5446 40.7215 35.97 41.4303 35.97C42.139 35.97 42.7136 36.5446 42.7136 37.2533V45.7188C42.7136 46.7314 41.91 47.6167 40.8283 47.6167H3.46736C1.95594 47.6167 0.716675 46.3774 0.716675 44.866V15.2306C0.716675 14.5218 1.29124 13.9473 2.00001 13.9473Z" fill="black"/>
<path fill-rule="evenodd" clip-rule="evenodd" d="M32.0076 12.6469C32.0076 11.9381 32.5821 11.3635 33.2909 11.3635H37.392C38.9034 11.3635 40.1426 12.6028 40.1426 14.1142V17.7261C40.1426 18.4349 39.5681 19.0095 38.8593 19.0095C38.1505 19.0095 37.576 18.4349 37.576 17.7261V14.1142C37.576 14.0735 37.5597 14.0276 37.5192 13.987C37.4786 13.9464 37.4326 13.9302 37.392 13.9302H33.2909C32.5821 13.9302 32.0076 13.3556 32.0076 12.6469Z" fill="black"/>
<path fill-rule="evenodd" clip-rule="evenodd" d="M6.04672 17.8014C6.04672 17.0926 6.62129 16.5181 7.33006 16.5181H41.4553C41.7963 16.5181 42.1232 16.6538 42.364 16.8952C42.6047 17.1366 42.7395 17.4639 42.7386 17.8049L42.7135 27.1197C42.7135 27.8284 42.139 28.403 41.4302 28.403C40.7214 28.403 40.1469 27.8284 40.1469 27.1197L40.1685 19.0847H7.33006C6.62129 19.0847 6.04672 18.5102 6.04672 17.8014Z" fill="black"/>
<path fill-rule="evenodd" clip-rule="evenodd" d="M3.28334 15.2177V15.2178L3.28335 15.2179L3.2837 15.22C3.2842 15.2224 3.28586 15.2293 3.29088 15.2412C3.30111 15.2655 3.3267 15.3136 3.38593 15.3816C3.50989 15.5238 3.74236 15.7081 4.11946 15.8908C4.87351 16.2562 6.00642 16.518 7.33011 16.518C8.03888 16.518 8.61345 17.0926 8.61345 17.8013C8.61345 18.5101 8.03888 19.0847 7.33011 19.0847C5.70657 19.0847 4.17443 18.7696 3.00024 18.2006C1.91323 17.6739 0.716675 16.7006 0.716675 15.2178C0.716675 13.4956 2.17483 12.4261 3.80525 11.8315C5.52552 11.2042 8.00428 10.8618 11.2305 10.8618C11.9393 10.8618 12.5138 11.4364 12.5138 12.1451C12.5138 12.8539 11.9393 13.4285 11.2305 13.4285C8.13584 13.4285 5.99935 13.7634 4.68459 14.2428C4.02793 14.4823 3.65181 14.7309 3.45724 14.9239C3.28334 15.0964 3.28334 15.1893 3.28334 15.2177Z" fill="black"/>
<path d="M35.0592 33.2274C34.4446 33.2274 33.9305 32.7132 33.9305 32.0861C33.9305 31.459 34.4321 30.9448 35.0592 30.9448C35.6862 30.9448 36.1879 31.459 36.1879 32.0861C36.1879 32.7132 35.6737 33.2274 35.0592 33.2274Z" fill="#191820"/>
</svg>
